<?xml version="1.0" encoding="UTF-8"?>
<svg version="1.1" xmlns="http://www.w3.org/2000/svg" width="24" height="24">
<path d="M0 0 C2.75 -0.3984375 2.75 -0.3984375 6 -0.375 C7.60875 -0.38660156 7.60875 -0.38660156 9.25 -0.3984375 C10.1575 -0.26695313 11.065 -0.13546875 12 0 C14.49111925 3.73667887 14.29613477 6.67870976 14.25 11 C14.25773437 11.72445313 14.26546875 12.44890625 14.2734375 13.1953125 C14.25942063 16.99388493 14.15441944 18.76837084 12 22 C9.25 22.3984375 9.25 22.3984375 6 22.375 C4.39125 22.38660156 4.39125 22.38660156 2.75 22.3984375 C1.8425 22.26695313 0.935 22.13546875 0 22 C-2.49111925 18.26332113 -2.29613477 15.32129024 -2.25 11 C-2.25773438 10.27554687 -2.26546875 9.55109375 -2.2734375 8.8046875 C-2.25942063 5.00611507 -2.15441944 3.23162916 0 0 Z M1 3 C0.90018786 5.6773138 0.86120125 8.32304175 0.875 11 C0.87113281 11.75023437 0.86726562 12.50046875 0.86328125 13.2734375 C0.52324459 16.93606117 0.52324459 16.93606117 2 20 C3.87321948 20.16053815 3.87321948 20.16053815 6 20.125 C6.721875 20.12757812 7.44375 20.13015625 8.1875 20.1328125 C10.02089415 20.19695276 10.02089415 20.19695276 11 19 C11.09981214 16.3226862 11.13879875 13.67695825 11.125 11 C11.12886719 10.24976563 11.13273437 9.49953125 11.13671875 8.7265625 C11.47675541 5.06393883 11.47675541 5.06393883 10 2 C8.12678052 1.83946185 8.12678052 1.83946185 6 1.875 C5.278125 1.87242188 4.55625 1.86984375 3.8125 1.8671875 C1.97910585 1.80304724 1.97910585 1.80304724 1 3 Z " fill="#EF840E" transform="translate(6,1)"/>
<path d="M0 0 C0.66 0 1.32 0 2 0 C2 0.66 2 1.32 2 2 C1.34 2 0.68 2 0 2 C0 1.34 0 0.68 0 0 Z " fill="#EF840E" transform="translate(11,18)"/>
</svg>
